<svg width="191" height="38" viewBox="0 0 191 38" fill="none" xmlns="http://www.w3.org/2000/svg">
<path d="M44.8523 14.5881V11.5455H59.1875V14.5881H53.8438V29H50.196V14.5881H44.8523ZM61.704 29H57.7495L63.775 11.5455H68.5307L74.5478 29H70.5932L66.2211 15.5341H66.0847L61.704 29ZM61.4568 22.1392H70.7978V25.0199H61.4568V22.1392ZM75.9286 29V11.5455H79.6189V25.9574H87.1019V29H75.9286ZM88.8258 29V11.5455H100.587V14.5881H92.5161V18.7472H99.982V21.7898H92.5161V25.9574H100.621V29H88.8258ZM117.401 11.5455V29H114.213L106.619 18.0142H106.491V29H102.801V11.5455H106.04L113.574 22.5227H113.727V11.5455H117.401ZM119.065 14.5881V11.5455H133.4V14.5881H128.056V29H124.409V14.5881H119.065ZM139.875 29V11.5455H143.566V25.9574H151.049V29H139.875ZM156.463 11.5455V29H152.773V11.5455H156.463ZM173.379 11.5455V29H170.191L162.597 18.0142H162.47V29H158.779V11.5455H162.018L169.552 22.5227H169.705V11.5455H173.379ZM175.708 29V11.5455H179.398V19.2415H179.628L185.909 11.5455H190.333L183.855 19.3608L190.409 29H185.995L181.213 21.8239L179.398 24.0398V29H175.708Z" fill="url(#paint0_linear_118_195)"/>
<rect width="38" height="38" rx="8" fill="url(#paint1_linear_118_195)"/>
<path d="M16 31C18.2091 31 20 29.2091 20 27C20 24.7909 18.2091 23 16 23C13.7909 23 12 24.7909 12 27C12 29.2091 13.7909 31 16 31Z" stroke="white" stroke-width="2" stroke-linecap="round" stroke-linejoin="round"/>
<path d="M20 27V11L27 15" stroke="white" stroke-width="2" stroke-linecap="round" stroke-linejoin="round"/>
<defs>
<linearGradient id="paint0_linear_118_195" x1="44" y1="20.5" x2="191" y2="20.5" gradientUnits="userSpaceOnUse">
<stop stop-color="#7C3BED"/>
<stop offset="1" stop-color="#F471B7"/>
</linearGradient>
<linearGradient id="paint1_linear_118_195" x1="19" y1="0" x2="19" y2="38" gradientUnits="userSpaceOnUse">
<stop stop-color="#7C3BED"/>
<stop offset="1" stop-color="#F471B7"/>
</linearGradient>
</defs>
</svg>
